<svg width="888" height="398" fill="none" xmlns="http://www.w3.org/2000/svg">
  <path d="M38 220.2h110.3v110.3H38V220.2ZM403.42 220.2h110.3l-110.3 110.3V220.2Z" fill="#000"/>
  <path d="M403.42 220.2h110.3l-110.3 110.3V220.2ZM90.8 162.72c-11 0-20.45-2.41-28.34-7.25a48.37 48.37 0 0 1-18.15-20C40.11 126.9 38 117.04 38 105.9c0-11.19 2.15-21.06 6.46-29.62 4.3-8.6 10.37-15.3 18.22-20.08 7.89-4.83 17.21-7.25 27.97-7.25 8.94 0 16.86 1.65 23.75 4.95a40.57 40.57 0 0 1 16.57 13.84c4.1 5.93 6.45 12.87 7.03 20.8h-24.82c-1-5.3-3.4-9.73-7.18-13.27-3.73-3.58-8.72-5.37-14.99-5.37-5.3 0-9.97 1.43-13.99 4.3-4.01 2.82-7.15 6.88-9.4 12.2-2.2 5.3-3.3 11.66-3.3 19.07 0 7.5 1.1 13.96 3.3 19.37 2.2 5.35 5.29 9.49 9.26 12.4 4.02 2.88 8.73 4.31 14.13 4.31 3.83 0 7.25-.72 10.26-2.15a20.63 20.63 0 0 0 7.67-6.38 24.52 24.52 0 0 0 4.24-10.12H138c-.63 7.8-2.92 14.7-6.9 20.73a40.77 40.77 0 0 1-16.2 14.06c-6.84 3.35-14.88 5.02-24.1 5.02ZM155.28 160.57V50.4h25.18v18.36h1.14c2.01-6.36 5.46-11.26 10.33-14.7a28.43 28.43 0 0 1 16.86-5.24c1.44 0 3.04.07 4.8.21 1.82.1 3.33.27 4.53.5v23.89a27.3 27.3 0 0 0-5.24-1 48.2 48.2 0 0 0-6.81-.5c-4.74 0-9 1.02-12.77 3.08-3.73 2-6.67 4.8-8.83 8.39a23.65 23.65 0 0 0-3.22 12.4v64.78h-25.97ZM275.57 162.72c-11.05 0-20.59-2.3-28.62-6.89a46.63 46.63 0 0 1-18.44-19.65c-4.3-8.51-6.45-18.53-6.45-30.05 0-11.34 2.15-21.28 6.45-29.84 4.35-8.6 10.43-15.3 18.22-20.08 7.8-4.83 16.96-7.25 27.48-7.25 6.79 0 13.2 1.1 19.22 3.3A43.45 43.45 0 0 1 309.5 62.3c4.69 4.54 8.37 10.33 11.05 17.36 2.67 6.98 4.01 15.3 4.01 24.96v7.96h-90.3v-17.5h65.41a27.92 27.92 0 0 0-3.23-13.27c-2.1-3.92-5.04-7-8.82-9.25-3.73-2.25-8.08-3.37-13.06-3.37-5.3 0-9.97 1.29-13.98 3.87a26.7 26.7 0 0 0-9.4 10.04 28.88 28.88 0 0 0-3.37 13.56v15.28c0 6.4 1.17 11.9 3.51 16.5a25.07 25.07 0 0 0 9.83 10.47c4.2 2.39 9.14 3.58 14.78 3.58 3.78 0 7.2-.52 10.26-1.58 3.06-1.1 5.71-2.7 7.96-4.8a20.01 20.01 0 0 0 5.1-7.82l24.24 2.73c-1.53 6.4-4.45 12-8.75 16.78-4.26 4.73-9.71 8.42-16.36 11.05-6.65 2.58-14.25 3.87-22.81 3.87ZM374.2 162.8c-6.99 0-13.27-1.25-18.87-3.74a30.8 30.8 0 0 1-13.2-11.19c-3.2-4.92-4.8-11-4.8-18.22 0-6.21 1.14-11.35 3.44-15.42a26.66 26.66 0 0 1 9.4-9.75 47.44 47.44 0 0 1 13.41-5.53c5.02-1.29 10.21-2.22 15.57-2.8 6.45-.66 11.69-1.26 15.7-1.79 4.02-.57 6.94-1.43 8.76-2.58 1.86-1.2 2.8-3.03 2.8-5.52v-.43c0-5.4-1.6-9.59-4.81-12.55-3.2-2.97-7.82-4.45-13.85-4.45-6.36 0-11.4 1.39-15.13 4.16-3.68 2.77-6.17 6.05-7.46 9.83l-24.25-3.45c1.92-6.7 5.07-12.29 9.47-16.78a41.18 41.18 0 0 1 16.14-10.19 61.75 61.75 0 0 1 21.1-3.44c5.3 0 10.58.62 15.84 1.87a44.6 44.6 0 0 1 14.42 6.16 30.98 30.98 0 0 1 10.48 11.55c2.67 4.88 4.01 10.98 4.01 18.3v73.73h-24.96v-15.14h-.86a31.7 31.7 0 0 1-6.67 8.61 32.06 32.06 0 0 1-10.7 6.38c-4.25 1.58-9.24 2.37-14.98 2.37Zm6.74-19.09c5.21 0 9.73-1.03 13.56-3.08a22.81 22.81 0 0 0 8.82-8.32c2.1-3.44 3.16-7.2 3.16-11.26v-12.99c-.82.67-2.2 1.3-4.16 1.87a58.78 58.78 0 0 1-6.46 1.5c-2.4.43-4.76.82-7.1 1.15l-6.1.86a45.33 45.33 0 0 0-10.4 2.59 17.29 17.29 0 0 0-7.25 5.02c-1.76 2.1-2.65 4.83-2.65 8.17 0 4.78 1.75 8.4 5.24 10.83 3.49 2.44 7.94 3.66 13.34 3.66ZM509.46 50.4v20.08h-63.34V50.4h63.34ZM461.76 24h25.97v103.43c0 3.5.52 6.17 1.57 8.03a8.51 8.51 0 0 0 4.3 3.73c1.78.67 3.74 1 5.9 1 1.62 0 3.1-.11 4.44-.35 1.39-.24 2.44-.46 3.16-.65l4.37 20.3c-1.39.48-3.37 1-5.95 1.58-2.54.57-5.65.9-9.33 1-6.5.2-12.36-.78-17.57-2.94a27.34 27.34 0 0 1-12.41-10.18c-3.01-4.6-4.5-10.33-4.45-17.22V24ZM648.74 160.57V50.4h25.18v18.36h1.14c2.01-6.36 5.46-11.26 10.33-14.7a28.43 28.43 0 0 1 16.86-5.24c1.44 0 3.04.07 4.8.21 1.82.1 3.33.27 4.53.5v23.89a27.3 27.3 0 0 0-5.24-1 48.2 48.2 0 0 0-6.82-.5c-4.73 0-8.99 1.02-12.76 3.08-3.73 2-6.67 4.8-8.83 8.39a23.65 23.65 0 0 0-3.22 12.4v64.78h-25.97ZM811.87 79.52 788.2 82.1a19.02 19.02 0 0 0-3.52-6.74 17.46 17.46 0 0 0-6.6-5.1c-2.77-1.29-6.16-1.93-10.18-1.93-5.4 0-9.95 1.17-13.63 3.51-3.63 2.34-5.43 5.38-5.38 9.11a9.53 9.53 0 0 0 3.51 7.82c2.44 2 6.46 3.66 12.06 4.95l18.79 4.02c10.43 2.24 18.17 5.8 23.24 10.68 5.12 4.88 7.7 11.26 7.75 19.15a29.96 29.96 0 0 1-6.1 18.37c-3.97 5.26-9.5 9.37-16.57 12.33-7.08 2.97-15.2 4.45-24.39 4.45-13.48 0-24.34-2.82-32.56-8.46-8.23-5.7-13.13-13.6-14.71-23.75l25.32-2.43c1.15 4.97 3.59 8.72 7.32 11.26 3.73 2.53 8.58 3.8 14.56 3.8 6.17 0 11.12-1.27 14.85-3.8 3.78-2.54 5.67-5.67 5.67-9.4a9.79 9.79 0 0 0-3.66-7.82c-2.4-2.05-6.12-3.63-11.2-4.73l-18.79-3.95c-10.57-2.2-18.38-5.9-23.45-11.11-5.07-5.26-7.58-11.91-7.53-19.94-.05-6.8 1.79-12.68 5.52-17.65 3.78-5.02 9.01-8.9 15.7-11.62 6.75-2.77 14.52-4.16 23.32-4.16 12.91 0 23.08 2.75 30.49 8.25 7.46 5.5 12.07 12.93 13.84 22.3ZM218.71 374c-9.32 0-17.33-1.27-24.03-3.8-6.7-2.49-12.07-5.83-16.14-10.04a34.76 34.76 0 0 1-8.46-13.99l23.38-5.67a25.73 25.73 0 0 0 4.6 6.39c2 2.15 4.7 3.92 8.1 5.3 3.44 1.44 7.77 2.16 12.98 2.16 7.37 0 13.46-1.8 18.3-5.38 4.82-3.54 7.24-9.38 7.24-17.5v-20.88h-1.3a36.85 36.85 0 0 1-5.87 8.25c-2.54 2.82-5.91 5.19-10.12 7.1-4.16 1.92-9.4 2.87-15.7 2.87-8.47 0-16.15-1.98-23.03-5.95-6.84-4.02-12.3-10-16.36-17.93-4.02-7.99-6.03-17.98-6.03-29.99 0-12.1 2.01-22.3 6.03-30.62 4.07-8.37 9.54-14.7 16.43-19.01a42.22 42.22 0 0 1 23.02-6.53c6.46 0 11.77 1.1 15.93 3.3 4.2 2.15 7.56 4.76 10.04 7.82a43.09 43.09 0 0 1 5.67 8.54h1.43v-18.22h25.61v111.96c0 9.42-2.25 17.22-6.74 23.39-4.5 6.17-10.64 10.78-18.44 13.84-7.8 3.06-16.64 4.59-26.54 4.59Zm.22-65.56c5.5 0 10.18-1.34 14.06-4.01 3.87-2.68 6.81-6.53 8.82-11.55 2-5.02 3.01-11.05 3.01-18.08 0-6.93-1-13-3.01-18.22-1.96-5.2-4.88-9.25-8.75-12.12-3.83-2.92-8.54-4.37-14.13-4.37-5.79 0-10.62 1.5-14.5 4.51-3.87 3.02-6.78 7.15-8.74 12.41-1.97 5.22-2.94 11.14-2.94 17.8 0 6.73.97 12.64 2.94 17.7 2 5.03 4.95 8.95 8.82 11.77 3.92 2.78 8.73 4.16 14.42 4.16ZM324.71 332.61c-6.98 0-13.27-1.24-18.86-3.73a30.79 30.79 0 0 1-13.2-11.19c-3.2-4.92-4.81-11-4.81-18.21 0-6.22 1.15-11.36 3.44-15.43a26.64 26.64 0 0 1 9.4-9.75 47.39 47.39 0 0 1 13.41-5.52c5.03-1.3 10.21-2.23 15.57-2.8 6.46-.67 11.7-1.27 15.71-1.8 4.02-.57 6.93-1.43 8.75-2.58 1.87-1.2 2.8-3.03 2.8-5.52v-.43c0-5.4-1.6-9.59-4.8-12.55-3.21-2.97-7.83-4.45-13.85-4.45-6.36 0-11.4 1.39-15.14 4.16-3.68 2.78-6.17 6.05-7.46 9.83l-24.24-3.44c1.9-6.7 5.07-12.3 9.46-16.79a41.2 41.2 0 0 1 16.15-10.18 61.75 61.75 0 0 1 21.08-3.45c5.31 0 10.6.63 15.86 1.87a44.58 44.58 0 0 1 14.42 6.17 30.97 30.97 0 0 1 10.47 11.55c2.68 4.87 4.02 10.97 4.02 18.28v73.74h-24.97v-15.13h-.86a31.71 31.71 0 0 1-6.67 8.6 32.1 32.1 0 0 1-10.69 6.39c-4.25 1.57-9.25 2.36-14.99 2.36Zm6.74-19.08c5.22 0 9.74-1.02 13.56-3.08a22.8 22.8 0 0 0 8.82-8.32 21.2 21.2 0 0 0 3.16-11.26v-12.98c-.81.67-2.2 1.29-4.16 1.86a58.78 58.78 0 0 1-6.46 1.5c-2.39.44-4.75.82-7.1 1.15l-6.1.87a45.3 45.3 0 0 0-10.4 2.58 17.27 17.27 0 0 0-7.24 5.02c-1.77 2.1-2.65 4.83-2.65 8.18 0 4.78 1.74 8.39 5.23 10.83 3.5 2.44 7.94 3.65 13.34 3.65ZM586.65 220.22v20.08h-63.34v-20.08h63.34Zm-47.7-26.4h25.97v103.43c0 3.5.52 6.17 1.58 8.04a8.52 8.52 0 0 0 4.3 3.72c1.77.68 3.73 1.01 5.88 1.01 1.63 0 3.11-.12 4.45-.36 1.39-.24 2.44-.45 3.15-.65l4.38 20.3c-1.39.48-3.37 1-5.95 1.58-2.54.58-5.65.91-9.33 1-6.5.2-12.36-.78-17.57-2.93a27.34 27.34 0 0 1-12.41-10.19c-3.02-4.59-4.5-10.33-4.45-17.21V193.82ZM653.1 332.54c-11.04 0-20.58-2.3-28.61-6.88A46.63 46.63 0 0 1 606.05 306c-4.3-8.5-6.45-18.53-6.45-30.05 0-11.33 2.15-21.28 6.45-29.84 4.35-8.6 10.43-15.3 18.22-20.08 7.8-4.83 16.95-7.25 27.48-7.25 6.78 0 13.2 1.1 19.22 3.3a43.44 43.44 0 0 1 16.07 10.04c4.68 4.55 8.37 10.33 11.04 17.36 2.68 6.98 4.02 15.3 4.02 24.96v7.96H611.8v-17.5h65.42a27.93 27.93 0 0 0-3.23-13.27c-2.1-3.92-5.04-7-8.82-9.25-3.73-2.25-8.08-3.37-13.06-3.37-5.3 0-9.97 1.3-13.99 3.87a26.7 26.7 0 0 0-9.4 10.05 28.9 28.9 0 0 0-3.36 13.55v15.28c0 6.4 1.17 11.9 3.51 16.5a25.08 25.08 0 0 0 9.83 10.47c4.2 2.39 9.13 3.58 14.78 3.58 3.77 0 7.2-.52 10.25-1.57 3.06-1.1 5.72-2.7 7.97-4.8a20.02 20.02 0 0 0 5.09-7.83l24.25 2.73a37.8 37.8 0 0 1-8.76 16.78c-4.25 4.74-9.7 8.42-16.35 11.05-6.65 2.58-14.25 3.87-22.81 3.87ZM635.87 105.86a56.84 56.84 0 1 1-113.67 0 56.84 56.84 0 0 1 113.67 0Z" fill="#000"/>
  <mask id="a" style="mask-type:alpha" maskUnits="userSpaceOnUse" x="721" y="220" width="111" height="111">
    <path d="M721.3 220.2h110.3v110.3H721.3V220.2Z" fill="#C4C4C4"/>
  </mask>
  <g mask="url(#a)">
    <path d="M831.6 330.5c0 60.9-49.38 110.3-110.3 110.3-60.92 0-110.3-49.4-110.3-110.3 0-60.93 49.38-110.3 110.3-110.3 60.92 0 110.3 49.38 110.3 110.3Z" fill="#000"/>
  </g>
</svg>